<svg width="800" height="70" viewBox="0 0 800 70" fill="none" xmlns="http://www.w3.org/2000/svg">
<path fill-rule="evenodd" clip-rule="evenodd" d="M202.076 18.1559L193.698 51.3708C193.516 52.1924 193.029 52.603 192.233 52.603H168.488C167.693 52.603 167.384 52.1924 167.551 51.3708L174.36 24.4078L167.88 16.945H177.341L177.496 16.9204H201.244C202.04 16.9204 202.313 17.3295 202.076 18.1559V18.1559ZM219.09 4.78818C216.974 1.74965 213.82 0.220093 209.597 0.220093H175.754C171.529 0.220093 167.894 1.74965 164.811 4.78818C161.728 7.82055 159.647 11.541 158.549 15.9651L149.09 53.5616C147.938 57.9858 148.437 61.7068 150.589 64.7653C152.72 67.7976 155.908 69.3018 160.137 69.3018H193.976C198.183 69.3018 201.824 67.7976 204.867 64.7653C207.913 61.7068 210.015 57.9858 211.184 53.5616L220.627 15.9651C221.725 11.541 221.225 7.82055 219.09 4.78818Z" fill="black"/>
<path fill-rule="evenodd" clip-rule="evenodd" d="M205.013 18.1559L196.635 51.3708C196.453 52.1924 195.966 52.603 195.171 52.603H171.422C170.626 52.603 170.322 52.1924 170.484 51.3708L180.275 16.945L180.433 16.9204H204.182C204.977 16.9204 205.246 17.3295 205.013 18.1559ZM222.043 4.78818C219.912 1.74965 216.758 0.220093 212.534 0.220093H178.691C174.462 0.220093 170.828 1.74965 167.745 4.78818C164.666 7.82055 162.583 11.541 161.482 15.9651L152.024 53.5616C150.871 57.9858 151.374 61.7068 153.526 64.7653C155.656 67.7976 158.845 69.3018 163.07 69.3018H196.913C201.121 69.3018 204.757 67.7976 207.805 64.7653C210.851 61.7068 212.968 57.9858 214.122 53.5616L223.561 15.9651C224.662 11.541 224.158 7.82055 222.043 4.78818" fill="black"/>
<path fill-rule="evenodd" clip-rule="evenodd" d="M203.841 18.1559L195.447 51.3708C195.285 52.1924 194.793 52.603 193.999 52.603H170.233C169.439 52.603 169.134 52.1924 169.316 51.3708L179.087 16.945L179.246 16.9204H203.01C203.805 16.9204 204.079 17.3295 203.841 18.1559V18.1559ZM220.855 4.78818C218.74 1.74965 215.57 0.220093 211.362 0.220093H177.519C173.295 0.220093 169.639 1.74965 166.577 4.78818C163.494 7.82055 161.395 11.541 160.315 15.9651L150.855 53.5616C149.702 57.9858 150.186 61.7068 152.337 64.7653C154.488 67.7976 157.674 69.3018 161.885 69.3018H195.725C199.953 69.3018 203.589 67.7976 206.636 64.7653C209.679 61.7068 211.781 57.9858 212.949 53.5616L222.393 15.9651C223.489 11.541 222.97 7.82055 220.855 4.78818Z" fill="black"/>
<path fill-rule="evenodd" clip-rule="evenodd" d="M131.947 18.1559L128.347 32.3673C128.113 33.1876 127.627 33.6241 126.898 33.6241H103.877L106.343 23.8828L100.277 16.945H108.093V16.9204H131.113C131.607 16.9204 131.897 17.1753 131.976 17.6735L131.947 18.1559V18.1559ZM150.86 9.91958C150.409 7.04552 149.188 4.69498 147.163 2.91462C145.155 1.1137 142.595 0.220093 139.465 0.220093H94.3418L76.8843 69.3018H94.8654L99.8124 49.5439H128.792C133 49.5439 136.651 48.0198 139.734 44.9408C142.8 41.8557 144.898 38.1606 145.996 33.8036L150.496 15.9651C151.045 13.912 151.157 11.9048 150.86 9.91958Z" fill="black"/>
<path fill-rule="evenodd" clip-rule="evenodd" d="M134.292 18.1559L130.694 32.3673C130.46 33.1876 129.97 33.6241 129.246 33.6241H106.226L108.672 23.8828L110.441 16.945L110.44 16.9204H133.462C133.954 16.9204 134.241 17.1753 134.32 17.6735L134.292 18.1559ZM153.207 9.91958C152.758 7.04552 151.535 4.69498 149.527 2.91462C147.503 1.1137 144.923 0.220093 141.813 0.220093H96.6901L79.2319 69.3018H97.213L102.157 49.5439H131.135C135.343 49.5439 138.999 48.0198 142.082 44.9408C145.144 41.8557 147.246 38.1606 148.344 33.8036L152.84 15.9651C153.393 13.912 153.505 11.9048 153.207 9.91958" fill="black"/>
<path fill-rule="evenodd" clip-rule="evenodd" d="M133.118 18.1559L129.516 32.3673C129.282 33.1876 128.796 33.6241 128.052 33.6241H105.031L107.497 23.8828L109.263 16.945L109.262 16.9204H132.284C132.78 16.9204 133.046 17.1753 133.126 17.6735L133.118 18.1559V18.1559ZM152.029 9.91958C151.579 7.04552 150.356 4.69498 148.333 2.91462C146.324 1.1137 143.745 0.220093 140.634 0.220093H95.5122L78.0581 69.3018H96.0186L100.963 49.5439H129.945C134.169 49.5439 137.825 48.0198 140.887 44.9408C143.969 41.8557 146.052 38.1606 147.17 33.8036L151.666 15.9651C152.218 13.912 152.327 11.9048 152.029 9.91958" fill="black"/>
<path fill-rule="evenodd" clip-rule="evenodd" d="M303.553 0L299.322 16.6995H321.511L308.284 69.0817H326.249L337.612 24.1403L331.148 16.725H339.493L339.492 16.6995H361.681L365.913 0H303.553V0Z" fill="black"/>
<path fill-rule="evenodd" clip-rule="evenodd" d="M306.487 0L302.256 16.6995H324.446L311.218 69.0817H329.183L340.542 24.1403L342.427 16.725V16.6995H364.616L368.848 0H306.487V0Z" fill="black"/>
<path fill-rule="evenodd" clip-rule="evenodd" d="M305.297 0L301.082 16.6995H323.272L310.048 69.0817H328.009L339.371 24.1403L341.237 16.725L341.253 16.6995H363.443L367.678 0H305.297V0Z" fill="black"/>
<path fill-rule="evenodd" clip-rule="evenodd" d="M288.279 4.7881C286.164 1.74957 282.994 0.220093 278.787 0.220093H246.765C242.557 0.220093 238.902 1.74957 235.822 4.7881C232.736 7.82046 230.657 11.5409 229.556 15.9651L226.895 26.711C225.743 31.1153 226.246 34.8507 228.398 37.8885C230.529 40.9222 233.718 42.4512 237.943 42.4512H263.986C264.781 42.4512 265.054 42.8623 264.82 43.6833L262.872 51.3708C262.705 52.1924 262.218 52.6029 261.422 52.6029H239.496C238.7 52.6029 238.396 52.1924 238.577 51.3708L239.63 47.4242H221.649L220.117 53.5616C218.949 57.9858 219.448 61.7068 221.6 64.7653C223.751 67.7976 226.936 69.3018 231.148 69.3018H263.607C267.835 69.3018 271.383 67.7976 274.287 64.7653C277.175 61.7068 279.205 57.9858 280.358 53.5616L283.019 42.815C284.188 38.4121 283.688 34.6965 281.537 31.6381C279.385 28.605 276.212 27.0968 271.988 27.0968H245.945C245.149 27.0968 244.84 26.665 245.023 25.8441L245.622 23.4476L239.969 16.945H248.349L248.512 16.9204H270.435C271.23 16.9204 271.499 17.3295 271.265 18.1559L270.304 22.1031H288.285L289.816 15.9651C290.914 11.5409 290.395 7.82046 288.279 4.7881" fill="black"/>
<path fill-rule="evenodd" clip-rule="evenodd" d="M290.631 4.7881C288.515 1.74957 285.346 0.220093 281.134 0.220093H249.132C244.908 0.220093 241.253 1.74957 238.17 4.7881C235.107 7.82046 233.009 11.5409 231.908 15.9651L229.247 26.711C228.094 31.1153 228.594 34.8507 230.745 37.8885C232.88 40.9222 236.065 42.4512 240.293 42.4512H266.337C267.133 42.4512 267.405 42.8623 267.171 43.6833L265.218 51.3708C265.037 52.1924 264.569 52.6029 263.774 52.6029H241.847C241.051 52.6029 240.747 52.1924 240.925 51.3708L241.982 47.4242H223.996L222.465 53.5616C221.297 57.9858 221.795 61.7068 223.947 64.7653C226.098 67.7976 229.287 69.3018 233.495 69.3018H265.958C270.182 69.3018 273.73 67.7976 276.639 64.7653C279.526 61.7068 281.556 57.9858 282.721 53.5616L285.386 42.815C286.535 38.4121 286.039 34.6965 283.888 31.6381C281.734 28.605 278.564 27.0968 274.34 27.0968H248.292C247.496 27.0968 247.192 26.665 247.374 25.8441L247.973 23.4476L250.7 16.945L250.858 16.9204H272.786C273.582 16.9204 273.85 17.3295 273.616 18.1559L272.652 22.1031H290.633L292.164 15.9651C293.266 11.5409 292.746 7.82046 290.631 4.7881" fill="black"/>
<path fill-rule="evenodd" clip-rule="evenodd" d="M289.457 4.7881C287.342 1.74957 284.173 0.220093 279.949 0.220093H247.943C243.735 0.220093 240.084 1.74957 237.001 4.7881C233.918 7.82046 231.836 11.5409 230.739 15.9651L228.073 26.711C226.925 31.1153 227.425 34.8507 229.556 37.8885C231.706 40.9222 234.896 42.4512 239.105 42.4512H265.167C265.944 42.4512 266.231 42.8623 265.998 43.6833L264.049 51.3708C263.867 52.1924 263.38 52.6029 262.601 52.6029H240.678C239.878 52.6029 239.574 52.1924 239.756 51.3708L240.793 47.4242H222.827L221.279 53.5616C220.127 57.9858 220.626 61.7068 222.777 64.7653C224.929 67.7976 228.098 69.3018 232.326 69.3018H264.788C269.013 69.3018 272.561 67.7976 275.465 64.7653C278.353 61.7068 280.383 57.9858 281.536 53.5616L284.197 42.815C285.366 38.4121 284.866 34.6965 282.715 31.6381C280.563 28.605 277.375 27.0968 273.166 27.0968H247.123C246.327 27.0968 246.019 26.665 246.201 25.8441L246.8 23.4476L249.53 16.945L249.689 16.9204H271.612C272.392 16.9204 272.681 17.3295 272.443 18.1559L271.479 22.1031H289.464L290.995 15.9651C292.092 11.5409 291.572 7.82046 289.457 4.7881" fill="black"/>
<path fill-rule="evenodd" clip-rule="evenodd" d="M79.3568 4.78199C77.2372 1.74963 74.0712 0.220093 69.8513 0.220093H48.8118C41.8432 0.220093 33.0751 3.68898 27.7059 15.9603L0 69.3018H20.2761L44.0416 22.4417L39.2549 16.9396H47.4241L47.7544 16.9204H60.3979C61.926 16.9204 62.4784 17.7147 62.0494 19.3168L57.2147 38.5924H38.6882L47.6516 52.6228H53.6814L49.4574 69.3018H67.4316L80.8863 15.9603C81.9835 11.5354 81.4716 7.81504 79.3568 4.78199" fill="black"/>
<path fill-rule="evenodd" clip-rule="evenodd" d="M82.2869 4.78199C80.1715 1.74963 77.0014 0.220093 72.7855 0.220093H51.7468C44.7734 0.220093 36.0107 3.68898 30.6402 15.9603L2.93433 69.3018H23.2111L46.9759 22.4417L42.1892 16.9396H50.355L50.6887 16.9204H63.3321C64.8603 16.9204 65.4126 17.7147 64.9843 19.3168L60.1524 38.5924H41.6225L50.5825 52.6228H56.6157L52.3923 69.3018H70.3658L83.8206 15.9603C84.9177 11.5354 84.4058 7.81504 82.2869 4.78199" fill="black"/>
<path fill-rule="evenodd" clip-rule="evenodd" d="M80.5306 4.78199C78.4111 1.74963 75.2451 0.220093 71.0251 0.220093H49.9856C43.017 0.220093 34.2495 3.68898 28.8797 15.9603L1.17383 69.3018H21.4547L45.2154 22.4417L40.4287 16.9396H48.5986L48.9283 16.9204H61.5758C63.104 16.9204 63.6522 17.7147 63.228 19.3168L58.392 38.5924H39.862L48.8255 52.6228H54.8553L50.6319 69.3018H68.6047L82.0602 15.9603C83.1566 11.5354 82.6454 7.81504 80.5306 4.78199" fill="black"/>
<path fill-rule="evenodd" clip-rule="evenodd" d="M425.631 4.5619C423.511 1.52953 420.346 0 416.125 0H395.086C388.116 0 379.35 3.4689 373.98 15.7395L346.274 69.0817H366.55L390.315 22.2216L385.53 16.7195H393.698L394.028 16.6996H406.672C408.199 16.6996 408.753 17.4945 408.324 19.096L403.488 38.3716H384.962L393.926 52.4027H399.955L395.731 69.0817H413.705L427.159 15.7402C428.257 11.316 427.746 7.59495 425.631 4.5619Z" fill="black"/>
<path fill-rule="evenodd" clip-rule="evenodd" d="M427.974 4.5619C425.859 1.52953 422.689 0 418.473 0H397.433C390.461 0 381.697 3.4689 376.327 15.7395L348.622 69.0817H368.898L392.663 22.2216L387.876 16.7195H396.042L396.376 16.6996H409.019C410.548 16.6996 411.101 17.4945 410.672 19.096L405.84 38.3716H387.31L396.27 52.4027H402.303L398.079 69.0817H416.053L429.509 15.7402C430.605 11.316 430.093 7.59495 427.974 4.5619" fill="black"/>
<path fill-rule="evenodd" clip-rule="evenodd" d="M426.804 4.5619C424.685 1.52953 421.519 0 417.299 0H396.26C389.291 0 380.523 3.4689 375.154 15.7395L347.448 69.0817H367.729L391.489 22.2216L386.703 16.7195H394.872L395.202 16.6996H407.85C409.378 16.6996 409.926 17.4945 409.501 19.096L404.666 38.3716H386.137L395.099 52.4027H401.129L396.905 69.0817H414.879L428.335 15.7402C429.431 11.316 428.919 7.59495 426.804 4.5619Z" fill="black"/>
<path fill-rule="evenodd" clip-rule="evenodd" d="M574.58 69.2504H595.075L604.504 31.9958L619.794 69.2504H639.366L656.84 0.146667H636.33L626.935 37.2875L612.533 0.146667H592.037L574.58 69.2504V69.2504Z" fill="#FF6600"/>
<path fill-rule="evenodd" clip-rule="evenodd" d="M593.212 0.146667H611.193L627.123 41.2108L637.519 0.146667H655.485L638.027 69.2504H620.964L604.13 28.1623L593.736 69.2504H575.753L593.212 0.146667V0.146667Z" fill="#FF6600"/>
<path fill-rule="evenodd" clip-rule="evenodd" d="M569.49 0.146667H545.92C538.953 0.146667 530.184 3.61491 524.815 15.8883L497.109 69.251H519.915L543.68 22.3676L538.894 16.8696H547.059L547.392 16.8456H557.506C559.034 16.8456 559.588 17.646 559.159 19.2413L554.323 38.5429H535.798L544.76 52.55H550.79L546.567 69.251H567.07L580.525 15.8883C581.622 11.4853 581.11 7.74236 578.991 4.70931C576.875 1.6749 573.706 0.146667 569.49 0.146667Z" fill="#FF6600"/>
<path fill-rule="evenodd" clip-rule="evenodd" d="M578.225 4.70923C576.106 1.67481 572.94 0.146667 568.721 0.146667H547.681C540.712 0.146667 531.944 3.61415 526.574 15.8882L498.869 69.251H519.149L542.911 22.3675L538.124 16.8695H546.293L546.623 16.8455H559.27C560.799 16.8455 561.348 17.646 560.923 19.2413L556.087 38.5429H537.557L546.52 52.55H552.55L548.327 69.251H566.301L579.756 15.8882C580.852 11.4846 580.341 7.74229 578.225 4.70923" fill="#FF6600"/>
<path fill-rule="evenodd" clip-rule="evenodd" d="M512.618 0.146667H461.784C457.879 0.146667 454.309 1.60569 451.121 4.52703C447.929 7.42371 445.76 11.2106 444.575 15.8883L433.468 60.0339C432.82 62.5886 433.12 64.7562 434.369 66.5578C435.633 68.3375 437.486 69.251 439.923 69.251H484.357C491.942 69.251 497.075 64.0017 499.745 53.5074L506.521 26.543H470.152L468.682 32.3137C467.652 36.3507 470.296 40.4589 473.904 40.4589H482.639L479.906 51.2966C479.726 52.1409 479.182 52.55 478.264 52.55H456.588C456.091 52.55 455.892 52.2992 456.007 51.7757L465.898 16.8696L466.057 16.8456H508.387L512.618 0.146667V0.146667Z" fill="#FF6600"/>
<path fill-rule="evenodd" clip-rule="evenodd" d="M511.268 0.146667H462.963C459.041 0.146667 455.493 1.60569 452.299 4.52703C449.111 7.42371 446.922 11.2106 445.759 15.8883L434.631 60.0339C433.998 62.5886 434.298 64.7562 435.547 66.5578C436.792 68.3375 438.648 69.251 441.106 69.251H483.007C490.595 69.251 495.708 64.0017 498.393 53.5074L505.154 26.543H471.33L469.845 32.3137C468.83 36.3507 471.455 40.4589 475.083 40.4589H483.817L481.086 51.2966C480.904 52.1409 480.361 52.55 479.443 52.55H455.221C454.744 52.55 454.545 52.2992 454.644 51.7757L464.531 16.8696L464.69 16.8456H507.037L511.268 0.146667V0.146667Z" fill="#FF6600"/>
<path fill-rule="evenodd" clip-rule="evenodd" d="M729.205 0.146667H708.713L702.131 26.064H678.156L684.738 0.146667H664.227L646.769 69.251H667.28L672.311 49.2195L673.941 42.7628H697.916L691.255 69.251H711.746L729.205 0.146667Z" fill="#FF6600"/>
<path fill-rule="evenodd" clip-rule="evenodd" d="M709.888 0.146667L703.306 26.064H676.8L683.382 0.146667H665.4L647.943 69.251H665.908L670.955 49.2195L672.57 42.7628H699.09L692.413 69.251H710.394L727.853 0.146667H709.888Z" fill="#FF6600"/>
<path fill-rule="evenodd" clip-rule="evenodd" d="M788.404 0.146667H764.834C757.866 0.146667 749.099 3.61491 743.729 15.8883L716.024 69.251H738.829L762.594 22.3676L757.807 16.8696H765.973L766.306 16.8456H776.421C777.949 16.8456 778.501 17.646 778.073 19.2413L773.238 38.5429H754.711L763.675 52.55H769.704L765.481 69.251H785.984L799.439 15.8883C800.536 11.4853 800.024 7.74236 797.905 4.70931C795.79 1.6749 792.62 0.146667 788.404 0.146667Z" fill="#FF6600"/>
<path fill-rule="evenodd" clip-rule="evenodd" d="M796.554 4.70923C794.436 1.67481 791.27 0.146667 787.05 0.146667H766.009C759.041 0.146667 750.273 3.61415 744.903 15.8882L717.198 69.251H737.478L761.239 22.3675L756.452 16.8695H764.622L764.951 16.8455H777.6C779.127 16.8455 779.677 17.646 779.252 19.2413L774.417 38.5429H755.887L764.85 52.55H770.88L766.656 69.251H784.629L798.084 15.8882C799.181 11.4846 798.669 7.74229 796.554 4.70923" fill="#FF6600"/>
</svg>
